<svg xmlns="http://www.w3.org/2000/svg" fill="none" viewBox="0 0 217 217">
	<path
		fill="url(#a)"
		d="M8.33 58.33a50 50 0 0 1 50-50h100a50 50 0 0 1 50 50v100a50 50 0 0 1-50 50h-100a50 50 0 0 1-50-50z"
	/>
	<path
		stroke="#000"
		stroke-opacity=".05"
		stroke-width="8.33"
		d="M158.33 4.17a54.17 54.17 0 0 1 54.17 54.16v100a54.17 54.17 0 0 1-54.17 54.17h-100a54.17 54.17 0 0 1-54.16-54.17v-100A54.17 54.17 0 0 1 58.33 4.17z"
	/>
	<path
		fill="url(#b)"
		d="M149 108.33c2.64 0 5.26.45 7.66 1.3 4.52 1.6 7.28 5.87 9.3 10.2l5.37 11.5c-1.44-.41-3.5-5.57-14.67-7.66H61.83c-3.5 0-12 2.44-17.5 7.66l5.24-11.47c1.99-4.35 4.73-8.63 9.24-10.23 2.4-.85 5.02-1.3 7.67-1.3z"
		opacity=".7"
	/>
	<path
		fill="url(#c)"
		d="M41.33 142.83a22.5 22.5 0 0 1 22.5-22.5h88a22.5 22.5 0 1 1 0 45h-88a22.5 22.5 0 0 1-22.5-22.5"
	/>
	<path fill="url(#d)" d="M59.33 142.83a6 6 0 0 1 12 0 6 6 0 1 1-12 0" />
	<path fill="url(#e)" d="M79.33 142.83a6 6 0 0 1 12 0 6 6 0 1 1-12 0" />
	<path
		fill="#000"
		d="M120.33 142.83a6 6 0 0 1 6-6h24a6 6 0 1 1 0 12h-24a6 6 0 0 1-6-6"
	/>
	<path
		fill="url(#f)"
		d="M120.33 142.83a6 6 0 0 1 6-6h24a6 6 0 1 1 0 12h-24a6 6 0 0 1-6-6"
	/>
	<path
		fill="url(#g)"
		d="M149 51.33c2.64 0 5.26.45 7.66 1.3 4.52 1.6 7.28 5.87 9.3 10.2l5.37 11.5c-1.44-.41-3.5-5.57-14.67-7.66H61.83c-3.5 0-12 2.44-17.5 7.66l5.24-11.47c1.99-4.35 4.73-8.63 9.24-10.23 2.4-.85 5.02-1.3 7.67-1.3z"
		opacity=".7"
	/>
	<path
		fill="url(#h)"
		d="M41.33 85.83a22.5 22.5 0 0 1 22.5-22.5h88a22.5 22.5 0 1 1 0 45h-88a22.5 22.5 0 0 1-22.5-22.5"
	/>
	<path fill="url(#i)" d="M59.33 85.83a6 6 0 1 1 12 0 6 6 0 0 1-12 0" />
	<path fill="url(#j)" d="M79.33 85.83a6 6 0 1 1 12 0 6 6 0 0 1-12 0" />
	<path
		fill="#000"
		d="M120.33 85.83a6 6 0 0 1 6-6h24a6 6 0 1 1 0 12h-24a6 6 0 0 1-6-6"
	/>
	<path
		fill="url(#k)"
		d="M120.33 85.83a6 6 0 0 1 6-6h24a6 6 0 1 1 0 12h-24a6 6 0 0 1-6-6"
	/>
	<defs>
		<linearGradient
			id="a"
			x1="208.33"
			x2="8.33"
			y1="8.33"
			y2="208.33"
			gradientUnits="userSpaceOnUse"
		>
			<stop stop-color="#7870cc" />
			<stop offset="1" stop-color="#2534bb" />
		</linearGradient>
		<linearGradient
			id="b"
			x1="106.93"
			x2="106.93"
			y1="93.77"
			y2="135.9"
			gradientUnits="userSpaceOnUse"
		>
			<stop stop-color="#fff" stop-opacity="0" />
			<stop offset="1" stop-color="#fff" stop-opacity=".8" />
		</linearGradient>
		<linearGradient
			id="c"
			x1="107.83"
			x2="107.83"
			y1="120.33"
			y2="165.33"
			gradientUnits="userSpaceOnUse"
		>
			<stop stop-color="#fff" />
			<stop offset=".5" stop-color="#fff" stop-opacity=".8" />
			<stop offset="1" stop-color="#fff" />
		</linearGradient>
		<linearGradient
			id="d"
			x1="65.73"
			x2="65.73"
			y1="148.83"
			y2="136.83"
			gradientUnits="userSpaceOnUse"
		>
			<stop stop-color="#99a7ff" />
			<stop offset="1" stop-color="#112258" />
		</linearGradient>
		<linearGradient
			id="e"
			x1="85.73"
			x2="85.73"
			y1="148.83"
			y2="136.83"
			gradientUnits="userSpaceOnUse"
		>
			<stop stop-color="#99a7ff" />
			<stop offset="1" stop-color="#112258" />
		</linearGradient>
		<linearGradient
			id="f"
			x1="139.53"
			x2="139.53"
			y1="148.83"
			y2="136.83"
			gradientUnits="userSpaceOnUse"
		>
			<stop stop-color="#99a7ff" />
			<stop offset="1" stop-color="#112258" />
		</linearGradient>
		<linearGradient
			id="g"
			x1="106.93"
			x2="108.33"
			y1="36.77"
			y2="63.33"
			gradientUnits="userSpaceOnUse"
		>
			<stop stop-color="#fff" stop-opacity="0" />
			<stop offset="1" stop-color="#fff" stop-opacity=".8" />
		</linearGradient>
		<linearGradient
			id="h"
			x1="107.83"
			x2="107.83"
			y1="63.33"
			y2="108.33"
			gradientUnits="userSpaceOnUse"
		>
			<stop stop-color="#fff" />
			<stop offset=".5" stop-color="#fff" stop-opacity=".8" />
			<stop offset="1" stop-color="#fff" />
		</linearGradient>
		<linearGradient
			id="i"
			x1="65.73"
			x2="65.73"
			y1="91.83"
			y2="79.83"
			gradientUnits="userSpaceOnUse"
		>
			<stop stop-color="#99a7ff" />
			<stop offset="1" stop-color="#112258" />
		</linearGradient>
		<linearGradient
			id="j"
			x1="85.73"
			x2="85.73"
			y1="91.83"
			y2="79.83"
			gradientUnits="userSpaceOnUse"
		>
			<stop stop-color="#99a7ff" />
			<stop offset="1" stop-color="#112258" />
		</linearGradient>
		<linearGradient
			id="k"
			x1="139.53"
			x2="139.53"
			y1="91.83"
			y2="79.83"
			gradientUnits="userSpaceOnUse"
		>
			<stop stop-color="#99a7ff" />
			<stop offset="1" stop-color="#112258" />
		</linearGradient>
	</defs>
</svg>
